<svg width="32" height="16" fill="none" xmlns="http://www.w3.org/2000/svg"><path fill-rule="evenodd" clip-rule="evenodd" d="M28.9 0C30.611 0 32 1.4 32 3.125v9.75C32 14.601 30.612 16 28.9 16H3.1C1.389 16 0 14.6 0 12.875v-9.75C0 1.399 1.388 0 3.1 0h25.8zM12.71 2.911c-.679 0-1.282.116-1.81.35-.528.232-.938.567-1.23 1.004-.292.437-.438.95-.438 1.539 0 .627.143 1.128.43 1.503a2.74 2.74 0 001.033.84c.4.186.921.374 1.563.564.47.133.84.254 1.11.363.268.11.492.259.671.449.18.19.269.432.269.727 0 .36-.132.653-.396.876-.264.223-.627.335-1.089.335-.452 0-.808-.119-1.068-.356-.248-.228-.39-.535-.427-.92l-.004-.05h-2.12v.066c.02.58.185 1.086.494 1.516.32.447.757.789 1.308 1.026.552.238 1.171.357 1.86.357.725 0 1.352-.136 1.88-.406.528-.271.928-.635 1.202-1.09.273-.456.41-.95.41-1.482 0-.618-.146-1.117-.438-1.497a2.823 2.823 0 00-1.047-.855c-.405-.19-.928-.38-1.57-.57a11.673 11.673 0 01-1.095-.377 1.994 1.994 0 01-.65-.428.902.902 0 01-.262-.662c0-.38.116-.67.346-.87.231-.2.54-.299.927-.299.443 0 .798.112 1.067.335.258.214.4.482.428.805l.003.043h2.178l-.005-.06c-.077-.865-.427-1.54-1.049-2.028-.636-.499-1.463-.748-2.481-.748zm10.684 0c-.924 0-1.772.219-2.545.655a4.874 4.874 0 00-1.838 1.817c-.453.775-.679 1.646-.679 2.615 0 .979.226 1.855.679 2.63a4.875 4.875 0 001.838 1.816 5.082 5.082 0 002.545.656c.924 0 1.772-.219 2.545-.656a4.823 4.823 0 001.831-1.817c.448-.774.672-1.65.672-2.629 0-.969-.224-1.84-.672-2.615a4.836 4.836 0 00-1.824-1.817 5.07 5.07 0 00-2.552-.655zm-16.632.143h-1.98V13h1.98V3.053zm16.632 1.653c.594 0 1.117.133 1.57.399.452.266.806.648 1.06 1.147.255.498.382 1.08.382 1.745s-.127 1.25-.382 1.753c-.254.504-.608.89-1.06 1.161-.453.271-.976.406-1.57.406-.594 0-1.12-.135-1.576-.406a2.762 2.762 0 01-1.068-1.161c-.254-.503-.382-1.088-.382-1.753 0-.665.128-1.247.382-1.745.255-.5.61-.881 1.068-1.147.457-.266.982-.4 1.576-.4z" fill="#fff"/></svg>