<svg width="16" height="16" fill="none" xmlns="http://www.w3.org/2000/svg"><path fill-rule="evenodd" clip-rule="evenodd" d="M8.373 0c.065 0 .117.052.117.117v.122a.117.117 0 01-.117.117h-.134v.395a7.625 7.625 0 017.386 7.622 7.626 7.626 0 11-15.25 0A7.626 7.626 0 017.761.751V.356h-.134A.117.117 0 017.51.24V.117c0-.065.052-.117.117-.117h.746zM8.19 1.75v.67a.191.191 0 11-.382 0v-.67a6.624 6.624 0 00-6.43 6.432h.669a.191.191 0 010 .382h-.67a6.625 6.625 0 006.43 6.432v-.67a.191.191 0 11.383 0v.67a6.624 6.624 0 006.43-6.432h-.669a.191.191 0 010-.382h.67a6.623 6.623 0 00-6.43-6.431zM8 8.018a.356.356 0 01.35.415l2.266 2.05c.058.053.1.12.121.196l.03.111a.077.077 0 01-.086.096l-.114-.019a.412.412 0 01-.207-.1l-2.266-2.05A.356.356 0 118 8.018z" fill="#fff"/></svg>