<svg width="16" height="16" fill="none" xmlns="http://www.w3.org/2000/svg"><path fill-rule="evenodd" clip-rule="evenodd" d="M4.64 10.596l7.383 4.29A7.774 7.774 0 018 16a7.6 7.6 0 01-3.36-.758v-4.646zM4.046 6.4v8.533c-2.224-1.232-3.763-3.532-4-6.21l4-2.323zM16 7.94v.071a7.91 7.91 0 01-3.408 6.519l-4-2.3L16 7.94zm-4.047-6.873c2.225 1.232 3.763 3.532 4 6.21l-4 2.323V1.067zm-8.545.403l4 2.299L0 8.036v-.024A7.922 7.922 0 013.408 1.47zM8 0c1.207 0 2.344.26 3.361.759V5.38L3.977 1.09A7.987 7.987 0 018 0z" fill="#fff"/></svg>