<svg width="128" height="31" fill="none" xmlns="http://www.w3.org/2000/svg"><g clip-path="url(#clip0_2_6)"><path fill-rule="evenodd" clip-rule="evenodd" d="M31.254 4.155c1.514 0 2.884.38 4.11 1.136 1.227.76 2.198 1.834 2.912 3.23.715 1.395 1.072 3.013 1.072 4.852 0 1.84-.357 3.469-1.072 4.886-.714 1.417-1.685 2.516-2.911 3.295-1.227.779-2.597 1.168-4.111 1.168-1.301 0-2.448-.27-3.44-.811-.991-.541-1.796-1.223-2.415-2.045V31H20.92V4.447h4.48v2.597c.575-.82 1.37-1.51 2.383-2.062 1.013-.552 2.17-.827 3.47-.827zm17.82 0c1.685 0 3.194.367 4.527 1.103a7.712 7.712 0 013.103 3.133c.736 1.352 1.104 2.905 1.104 4.658a10.8 10.8 0 01-.128 1.753H44.723c.107 1.298.555 2.315 1.344 3.051.789.736 1.76 1.104 2.911 1.104 1.664 0 2.847-.725 3.551-2.175h4.831c-.512 1.731-1.493 3.154-2.943 4.269-1.45 1.117-3.232 1.671-5.343 1.671-1.706 0-3.237-.384-4.591-1.152-1.354-.768-2.41-1.856-3.167-3.262-.758-1.407-1.136-3.03-1.136-4.87 0-1.858.373-3.492 1.12-4.901.746-1.407 1.791-2.486 3.135-3.246 1.344-.755 2.89-1.136 4.639-1.136zm70.192 0c1.685 0 3.194.367 4.527 1.103a7.712 7.712 0 013.103 3.133c.736 1.352 1.104 2.905 1.104 4.658 0 .65-.043 1.233-.128 1.753h-12.957c.106 1.298.554 2.315 1.344 3.051.789.736 1.759 1.104 2.911 1.104 1.664 0 2.847-.725 3.551-2.175h4.831c-.512 1.731-1.493 3.154-2.943 4.269-1.451 1.117-3.232 1.671-5.343 1.671-1.706 0-3.237-.384-4.591-1.152-1.355-.768-2.41-1.856-3.167-3.262-.758-1.407-1.136-3.03-1.136-4.87 0-1.858.373-3.492 1.12-4.901.746-1.407 1.791-2.486 3.135-3.246 1.344-.755 2.89-1.136 4.639-1.136zM4.426 16.333l8.238 4.842a6.46 6.46 0 01-1.093.73c-1.013.541-2.186.812-3.52.812-1.306 0-2.532-.298-3.625-.92v-5.464zM86.248 4.447v9.901c0 1.428.352 2.527 1.056 3.295.704.768 1.664 1.152 2.88 1.152 1.237 0 2.207-.384 2.911-1.152.704-.768 1.056-1.867 1.056-3.295v-9.9h4.51V22.43h-4.51v-2.272c-.576.779-1.328 1.39-2.256 1.834a6.918 6.918 0 01-3.023.665c-1.386 0-2.613-.297-3.68-.892-1.066-.596-1.903-1.472-2.51-2.63-.609-1.158-.913-2.537-.913-4.139V4.447h4.48zM69.07 4.188V8.96h-1.184c-1.408 0-2.469.335-3.183 1.006-.715.671-1.072 1.84-1.072 3.506v8.96h-4.48V4.447h4.48v2.791A6.341 6.341 0 0165.886 5c.928-.54 1.99-.811 3.184-.811zm41.366 0V8.96h-1.184c-1.408 0-2.469.335-3.183 1.006-.715.671-1.072 1.84-1.072 3.506v8.96h-4.479V4.447h4.479v2.791A6.347 6.347 0 01107.252 5c.928-.54 1.989-.811 3.184-.811zM76.652 0v4.447h3.968V8.18h-3.968v8.7c0 .606.144 1.044.432 1.315.288.27.773.405 1.456.405h2.08v3.83h-2.816c-3.775 0-5.663-1.86-5.663-5.583V8.18H70.03V4.447h2.111V0h4.511zM18.45 12.572v9.847h-4.505v-2.624a4.72 4.72 0 01-.747.892l-4.319-2.515 9.571-5.6zM3.76 11.517v9.873c-1.12-.757-2.026-1.785-2.693-3.138C.4 16.927.053 15.412 0 13.708l3.76-2.191zm26.311-3.37c-.81 0-1.573.211-2.287.633-.715.422-1.29 1.034-1.728 1.834-.437.801-.656 1.742-.656 2.824 0 1.082.219 2.027.656 2.825.437.8 1.013 1.412 1.728 1.834a4.424 4.424 0 002.287.633c.832 0 1.605-.217 2.32-.65.714-.432 1.29-1.05 1.727-1.85.438-.8.656-1.753.656-2.857 0-1.082-.219-2.018-.656-2.807-.437-.79-1.013-1.39-1.727-1.802a4.572 4.572 0 00-2.32-.617zM18.45 4.457v7.33l-5.786 3.382V5.7c.507.379.934.812 1.28 1.298V4.457h4.506zM3.093 5.917l4.452 2.598-7.518 4.409c.026-1.65.373-3.11 1.04-4.382a8.675 8.675 0 012.026-2.624zm45.853 1.97c-1.11 0-2.042.341-2.8 1.023-.757.682-1.22 1.629-1.391 2.84h8.414c-.021-1.168-.437-2.104-1.248-2.807-.81-.704-1.802-1.055-2.975-1.055zm70.192 0c-1.109 0-2.042.341-2.799 1.023-.758.682-1.222 1.629-1.392 2.84h8.414c-.021-1.168-.437-2.104-1.248-2.807-.81-.704-1.802-1.055-2.975-1.055zM8.104 4.16c1.307 0 2.453.27 3.466.812.134.081.294.162.427.27v5.113l-8.292-4.87c.08-.08.187-.134.267-.188C5.198 4.539 6.585 4.16 8.104 4.16z" fill="#fff"/></g><defs><clipPath id="clip0_2_6"><path fill="#fff" d="M0 0h128v31H0z"/></clipPath></defs></svg>